<?xml version="1.0" standalone="no"?>
<!DOCTYPE svg PUBLIC "-//W3C//DTD SVG 20010904//EN"
 "http://www.w3.org/TR/2001/REC-SVG-20010904/DTD/svg10.dtd">
<svg version="1.0" xmlns="http://www.w3.org/2000/svg"
 width="908.000000pt" height="448.000000pt" viewBox="0 0 908.000000 448.000000"
 preserveAspectRatio="xMidYMid meet">

<g transform="translate(0.000000,448.000000) scale(0.100000,-0.100000)"
fill="#000000" stroke="none">
<path d="M160 4105 c0 -14 21 -25 48 -25 25 0 120 -47 155 -76 17 -14 43 -42
59 -61 l28 -36 -1 -611 c0 -336 -4 -635 -8 -663 -9 -63 -38 -99 -93 -113 -22
-6 -38 -17 -38 -25 0 -13 30 -15 190 -15 155 0 190 3 190 14 0 8 -15 17 -35
20 -55 11 -91 55 -104 130 -14 79 -15 1094 -1 1116 8 13 11 13 23 0 15 -16
161 -193 292 -355 114 -140 272 -333 373 -455 l87 -105 2 -90 c2 -49 3 -102 3
-117 0 -24 4 -28 30 -28 17 0 33 -6 35 -13 3 -6 6 -473 8 -1037 l2 -1025 258
-3 c141 -1 258 -1 259 0 2 2 5 230 8 508 l5 505 598 5 c328 3 597 8 597 13 0
4 0 140 0 302 l0 295 -597 2 -598 3 -5 191 c-3 105 -3 204 0 220 l5 29 628 3
627 2 0 220 0 220 -752 2 -753 3 0 465 c0 432 1 468 18 493 26 40 73 65 134
73 34 4 53 11 53 20 0 10 -49 13 -255 14 -207 0 -255 -2 -255 -13 0 -9 23 -18
62 -25 35 -6 74 -20 88 -30 49 -37 52 -62 51 -540 -1 -244 -4 -448 -7 -453 -3
-5 -36 -9 -73 -9 -76 0 -75 0 -153 102 -24 30 -101 127 -173 214 -71 87 -170
208 -220 269 -97 120 -152 187 -201 244 -17 20 -65 79 -108 132 -48 61 -86 99
-101 103 -14 4 -106 6 -205 6 -142 -1 -180 -4 -180 -15z"/>
<path d="M4985 3656 c-59 -26 -94 -91 -95 -176 -1 -135 81 -217 195 -196 46 9
93 52 101 94 6 31 5 32 -25 32 -24 0 -31 -4 -31 -19 0 -26 -46 -61 -79 -61
-59 0 -101 61 -101 145 0 84 42 145 101 145 30 0 79 -34 79 -56 0 -9 11 -14
30 -14 37 0 40 24 8 65 -40 51 -120 69 -183 41z"/>
<path d="M6942 3663 c-66 -13 -121 -124 -108 -220 13 -98 59 -150 143 -160 66
-7 114 14 150 68 25 38 28 51 28 124 0 73 -3 86 -28 124 -40 61 -98 81 -185
64z m97 -58 c37 -18 61 -71 61 -130 0 -80 -47 -145 -105 -145 -58 0 -105 65
-105 145 0 108 72 171 149 130z"/>
<path d="M2080 3475 l0 -185 25 0 25 0 0 132 0 132 81 -132 c74 -121 83 -132
110 -132 l29 0 0 185 0 185 -30 0 -29 0 -3 -125 -3 -126 -75 126 c-67 112 -78
125 -102 125 l-28 0 0 -185z"/>
<path d="M2456 3487 c-33 -94 -61 -178 -64 -184 -3 -9 6 -13 26 -13 29 0 32 4
48 55 l18 56 65 -3 64 -3 17 -50 c15 -45 20 -50 50 -53 24 -3 31 0 28 10 -3 7
-33 91 -69 186 -63 171 -64 172 -94 172 -30 0 -30 -1 -89 -173z m110 41 c9
-29 19 -59 22 -65 3 -9 -9 -13 -41 -13 l-45 0 21 65 c12 36 22 65 23 65 1 0
10 -24 20 -52z"/>
<path d="M2740 3511 c0 -137 2 -151 23 -181 38 -58 154 -68 204 -18 33 34 42
82 43 226 l0 122 -30 0 -30 0 0 -140 c0 -136 -1 -142 -25 -165 -25 -26 -63
-32 -95 -15 -30 16 -40 66 -40 196 l0 124 -25 0 -25 0 0 -149z"/>
<path d="M3090 3475 l0 -185 25 0 25 0 1 128 c1 143 -2 145 55 -41 25 -83 28
-88 53 -85 24 3 29 12 63 123 l37 120 0 -122 1 -123 30 0 30 0 0 185 0 185
-39 0 c-36 0 -40 -3 -50 -32 -5 -18 -24 -79 -41 -135 -17 -57 -32 -103 -34
-103 -1 0 -20 61 -41 135 l-39 135 -38 0 -38 0 0 -185z"/>
<path d="M3480 3511 c0 -137 2 -151 23 -181 38 -58 154 -68 204 -18 33 34 42
82 43 226 l0 122 -30 0 -30 0 0 -140 c0 -136 -1 -142 -25 -165 -25 -26 -63
-32 -95 -15 -30 16 -40 66 -40 196 l0 124 -25 0 -25 0 0 -149z"/>
<path d="M3820 3476 l0 -186 25 0 c24 0 25 2 25 75 l0 75 48 0 c61 0 85 -21
108 -95 16 -50 20 -55 46 -55 15 0 28 4 28 8 0 17 -40 125 -51 138 -8 10 -5
21 15 45 35 41 36 106 2 146 -23 27 -28 28 -135 31 l-111 4 0 -186z m194 118
c9 -8 16 -31 16 -49 0 -44 -20 -55 -99 -55 l-61 0 0 60 0 60 64 0 c45 0 69 -5
80 -16z"/>
<path d="M4300 3475 l0 -185 25 0 c25 0 25 1 25 85 l0 85 80 0 c79 0 80 0 80
25 0 25 -1 25 -80 25 l-80 0 0 50 0 50 90 0 c89 0 90 0 90 25 l0 25 -115 0
-115 0 0 -185z"/>
<path d="M4616 3487 c-33 -94 -61 -178 -64 -184 -3 -9 6 -13 26 -13 29 0 32 4
48 55 l18 56 65 -3 64 -3 17 -50 c15 -45 20 -50 50 -53 24 -3 31 0 28 10 -3 7
-33 91 -69 186 -63 171 -64 172 -94 172 -30 0 -30 -1 -89 -173z m110 41 c9
-29 19 -59 22 -65 3 -9 -9 -13 -41 -13 l-45 0 21 65 c12 36 22 65 23 65 1 0
10 -24 20 -52z"/>
<path d="M5260 3475 l0 -185 30 0 30 0 0 185 0 185 -30 0 -30 0 0 -185z"/>
<path d="M5400 3475 l0 -185 105 0 105 0 0 25 c0 25 -1 25 -80 25 l-80 0 0
160 0 160 -25 0 -25 0 0 -185z"/>
<path d="M5660 3475 l0 -185 30 0 30 0 0 185 0 185 -30 0 -30 0 0 -185z"/>
<path d="M5770 3635 c0 -24 3 -25 55 -25 l55 0 0 -160 0 -160 25 0 25 0 0 160
0 160 55 0 c52 0 55 1 55 25 l0 25 -135 0 -135 0 0 -25z"/>
<path d="M6126 3487 c-33 -94 -61 -178 -64 -184 -3 -9 6 -13 26 -13 29 0 32 4
48 55 l18 56 65 -3 64 -3 17 -50 c15 -45 20 -50 50 -53 24 -3 31 0 28 10 -3 7
-33 91 -69 186 -63 171 -64 172 -94 172 -30 0 -30 -1 -89 -173z m110 41 c9
-29 19 -59 22 -65 3 -9 -9 -13 -41 -13 l-45 0 21 65 c12 36 22 65 23 65 1 0
10 -24 20 -52z"/>
<path d="M6380 3635 c0 -24 3 -25 55 -25 l55 0 0 -160 0 -160 25 0 25 0 0 160
0 160 55 0 c52 0 55 1 55 25 l0 25 -135 0 -135 0 0 -25z"/>
<path d="M6710 3475 l0 -185 30 0 30 0 0 185 0 185 -30 0 -30 0 0 -185z"/>
<path d="M7210 3475 l0 -185 25 0 25 0 0 132 0 132 81 -132 c74 -121 83 -132
110 -132 l29 0 0 185 0 185 -30 0 -29 0 -3 -125 -3 -126 -75 126 c-67 112 -78
125 -102 125 l-28 0 0 -185z"/>
<path d="M3859 2437 c-177 -94 -119 -361 81 -375 136 -10 237 107 208 241 -27
126 -174 194 -289 134z"/>
<path d="M3140 920 l0 -300 2970 0 2970 0 0 300 0 300 -2970 0 -2970 0 0 -300z
m268 88 c-3 -7 -25 -14 -51 -16 -45 -3 -47 -5 -47 -33 0 -27 2 -29 40 -29 29
0 40 -4 40 -15 0 -11 -11 -15 -39 -15 -40 0 -40 0 -43 -42 -2 -30 -8 -43 -18
-43 -12 0 -16 19 -18 103 l-3 102 71 0 c53 0 71 -3 68 -12z m146 -86 c41 -113
41 -112 20 -112 -9 0 -21 14 -27 30 -10 25 -17 30 -45 30 -28 0 -35 -5 -44
-31 -6 -17 -16 -29 -25 -27 -19 4 -19 5 17 113 43 128 56 128 104 -3z m196 71
c15 -19 18 -29 9 -37 -8 -8 -15 -5 -26 12 -20 28 -68 30 -83 3 -17 -34 -12
-96 10 -116 17 -15 24 -16 45 -7 14 6 25 18 25 27 0 8 9 15 19 15 18 0 19 -4
10 -29 -10 -29 -44 -51 -79 -51 -50 0 -92 80 -76 144 17 67 105 90 146 39z
m80 -78 c0 -87 -3 -105 -15 -105 -12 0 -15 18 -15 105 0 87 3 105 15 105 12 0
15 -18 15 -105z m70 15 l0 -90 45 0 c33 0 45 -4 45 -15 0 -12 -13 -15 -60 -15
l-60 0 0 105 c0 87 3 105 15 105 12 0 15 -17 15 -90z m150 -15 c0 -87 -3 -105
-15 -105 -12 0 -15 18 -15 105 0 87 3 105 15 105 12 0 15 -18 15 -105z m180
90 c0 -10 -10 -15 -30 -15 l-30 0 0 -90 c0 -73 -3 -90 -15 -90 -12 0 -15 17
-15 90 l0 90 -30 0 c-20 0 -30 5 -30 15 0 12 15 15 75 15 60 0 75 -3 75 -15z
m144 -83 c41 -113 41 -112 20 -112 -9 0 -21 14 -27 30 -10 25 -17 30 -45 30
-28 0 -35 -5 -44 -31 -6 -17 -16 -29 -25 -27 -19 4 -19 5 17 113 43 128 56
128 104 -3z m186 83 c0 -10 -10 -15 -30 -15 l-30 0 0 -90 c0 -73 -3 -90 -15
-90 -12 0 -15 17 -15 90 l0 90 -30 0 c-20 0 -30 5 -30 15 0 12 15 15 75 15 60
0 75 -3 75 -15z m60 -90 c0 -87 -3 -105 -15 -105 -12 0 -15 18 -15 105 0 87 3
105 15 105 12 0 15 -18 15 -105z m171 92 c43 -33 53 -117 19 -160 -39 -50
-116 -43 -145 12 -38 74 2 161 73 161 21 0 44 -6 53 -13z m146 -53 l38 -66 3
66 c3 58 5 66 23 66 19 0 20 -6 17 -102 -4 -131 -18 -139 -74 -43 l-39 67 -5
-64 c-4 -47 -9 -63 -20 -63 -12 0 -16 19 -18 103 -3 96 -2 102 17 102 15 0 31
-19 58 -66z m323 51 c0 -11 -12 -15 -50 -15 -47 0 -50 -2 -50 -25 0 -23 3 -25
51 -25 66 0 62 -24 -4 -28 -46 -3 -47 -4 -47 -38 l0 -34 56 0 c40 0 55 -3 52
-12 -3 -9 -27 -13 -74 -13 l-69 0 -3 103 -3 102 71 0 c56 0 70 -3 70 -15z
m170 0 c0 -10 -10 -15 -30 -15 l-30 0 0 -90 c0 -73 -3 -90 -15 -90 -12 0 -15
17 -15 90 l0 90 -30 0 c-20 0 -30 5 -30 15 0 12 15 15 75 15 60 0 75 -3 75
-15z m138 -87 c-3 -89 -5 -103 -20 -106 -16 -3 -18 7 -18 102 0 100 1 106 20
106 20 0 21 -5 18 -102z m109 36 l38 -66 3 66 c3 58 5 66 23 66 19 0 20 -6 17
-102 -4 -131 -18 -139 -74 -43 l-39 67 -5 -64 c-4 -47 -9 -63 -20 -63 -12 0
-16 19 -18 103 -3 96 -2 102 17 102 15 0 31 -19 58 -66z m253 51 c0 -10 -10
-15 -30 -15 l-30 0 0 -90 c0 -73 -3 -90 -15 -90 -12 0 -15 17 -15 90 l0 90
-30 0 c-20 0 -30 5 -30 15 0 12 15 15 75 15 60 0 75 -3 75 -15z m158 3 c-3 -8
-26 -14 -56 -16 -48 -3 -52 -5 -52 -28 0 -22 4 -24 50 -24 38 0 50 -4 50 -15
0 -11 -12 -15 -50 -15 l-50 0 0 -35 0 -35 55 0 c42 0 55 -3 55 -15 0 -12 -14
-15 -70 -15 l-70 0 0 105 0 105 71 0 c52 0 70 -3 67 -12z m179 -14 c16 -24 16
-29 1 -54 -14 -25 -14 -32 -1 -74 9 -26 13 -49 10 -53 -14 -13 -34 7 -46 46
-10 36 -16 41 -41 41 -27 0 -29 -3 -32 -42 -2 -30 -8 -43 -18 -43 -12 0 -16
19 -18 103 l-3 102 65 0 c60 0 67 -2 83 -26z m114 -46 l22 -73 18 60 c10 33
19 66 19 73 0 6 11 12 25 12 l25 0 0 -105 c0 -87 -3 -105 -15 -105 -12 0 -15
14 -16 68 l0 67 -21 -68 c-26 -83 -43 -85 -68 -7 l-17 55 -4 -55 c-3 -41 -8
-55 -19 -55 -12 0 -16 19 -18 103 l-3 102 25 0 c22 0 28 -8 47 -72z m287 60
c-3 -8 -26 -14 -56 -16 -48 -3 -52 -5 -52 -28 0 -22 4 -24 50 -24 38 0 50 -4
50 -15 0 -11 -12 -15 -50 -15 l-50 0 0 -35 0 -35 55 0 c42 0 55 -3 55 -15 0
-12 -14 -15 -70 -15 l-70 0 0 105 0 105 71 0 c52 0 70 -3 67 -12z m159 -10
c46 -51 36 -145 -17 -173 -16 -8 -47 -15 -70 -15 l-40 0 0 105 0 105 53 0 c43
0 58 -5 74 -22z m101 -80 c-3 -89 -5 -103 -20 -106 -16 -3 -18 7 -18 102 0
100 1 106 20 106 20 0 21 -5 18 -102z m156 4 c41 -113 41 -112 20 -112 -9 0
-21 14 -27 30 -10 25 -17 30 -45 30 -28 0 -35 -5 -44 -31 -6 -17 -16 -29 -25
-27 -19 4 -19 5 17 113 43 128 56 128 104 -3z m194 86 c-3 -7 -16 -14 -31 -16
-26 -3 -26 -5 -29 -90 -2 -69 -6 -87 -18 -87 -12 0 -16 18 -18 87 -3 85 -3 87
-29 90 -15 2 -28 9 -31 16 -3 9 17 12 78 12 61 0 81 -3 78 -12z m60 -90 c-3
-89 -5 -103 -20 -106 -16 -3 -18 7 -18 102 0 100 1 106 20 106 20 0 21 -5 18
-102z m175 82 c52 -41 41 -152 -19 -179 -39 -17 -61 -13 -93 17 -29 26 -34 45
-32 105 2 66 89 100 144 57z m134 -46 l38 -66 3 66 c3 58 5 66 23 66 19 0 20
-6 17 -102 -4 -131 -18 -139 -74 -43 l-39 67 -5 -64 c-4 -47 -9 -63 -20 -63
-12 0 -16 19 -18 103 -3 96 -2 102 17 102 15 0 31 -19 58 -66z m318 41 c35
-34 35 -112 1 -151 -20 -24 -31 -28 -77 -29 l-54 0 -3 103 -3 102 56 0 c46 0
60 -4 80 -25z m195 10 c0 -11 -12 -15 -50 -15 -47 0 -50 -2 -50 -25 0 -23 3
-25 51 -25 66 0 62 -24 -4 -28 -46 -3 -47 -4 -47 -38 l0 -34 56 0 c40 0 55 -3
52 -12 -3 -9 -27 -13 -74 -13 l-69 0 -3 103 -3 102 71 0 c56 0 70 -3 70 -15z
m152 -2 c21 -19 24 -53 4 -53 -8 0 -18 9 -21 20 -9 28 -65 29 -65 1 0 -14 11
-23 38 -31 74 -24 91 -62 47 -105 -39 -40 -106 -26 -124 26 -9 25 -8 29 10 29
10 0 19 -7 19 -15 0 -20 36 -38 61 -30 34 11 20 48 -22 60 -67 19 -88 57 -52
97 20 23 80 24 105 1z m260 0 c18 -16 24 -59 10 -79 -11 -17 -48 -34 -76 -34
-21 0 -25 -5 -28 -37 -2 -26 -8 -38 -18 -38 -12 0 -16 19 -18 103 l-3 102 57
0 c39 0 63 -5 76 -17z m109 -55 l22 -73 18 60 c10 33 19 66 19 73 0 6 11 12
25 12 l25 0 0 -105 c0 -87 -3 -105 -15 -105 -12 0 -15 14 -16 68 l0 67 -21
-68 c-26 -83 -43 -85 -68 -7 l-17 55 -4 -55 c-3 -41 -8 -55 -19 -55 -12 0 -16
19 -18 103 l-3 102 25 0 c22 0 28 -8 47 -72z m287 60 c-3 -8 -26 -14 -56 -16
-48 -3 -52 -5 -52 -28 0 -22 4 -24 50 -24 38 0 50 -4 50 -15 0 -11 -12 -15
-50 -15 l-50 0 0 -35 0 -35 55 0 c42 0 55 -3 55 -15 0 -12 -14 -15 -70 -15
l-70 0 0 105 0 105 71 0 c52 0 70 -3 67 -12z"/>
<path d="M3486 938 c-9 -35 -8 -38 14 -38 11 0 20 3 20 8 0 19 -13 52 -20 52
-4 0 -10 -10 -14 -22z"/>
<path d="M4306 938 c-9 -35 -8 -38 14 -38 11 0 20 3 20 8 0 19 -13 52 -20 52
-4 0 -10 -10 -14 -22z"/>
<path d="M4700 970 c-6 -12 -10 -40 -8 -63 2 -33 8 -44 30 -57 26 -14 29 -13
50 8 26 26 31 89 9 116 -19 23 -68 21 -81 -4z"/>
<path d="M6160 960 c0 -30 2 -31 38 -28 32 3 37 6 37 28 0 22 -5 25 -37 28
-36 3 -38 2 -38 -28z"/>
<path d="M6730 915 c0 -71 1 -75 23 -75 41 0 67 27 67 71 0 59 -14 79 -55 79
l-35 0 0 -75z"/>
<path d="M7016 938 c-9 -35 -8 -38 14 -38 11 0 20 3 20 8 0 19 -13 52 -20 52
-4 0 -10 -10 -14 -22z"/>
<path d="M7416 968 c-33 -46 -7 -128 39 -128 28 0 55 38 55 78 0 65 -61 97
-94 50z"/>
<path d="M7870 915 c0 -72 1 -75 23 -75 35 0 57 21 64 62 8 51 -16 88 -57 88
l-30 0 0 -75z"/>
<path d="M8480 955 c0 -28 4 -35 19 -35 37 0 51 12 51 41 0 26 -3 29 -35 29
-33 0 -35 -2 -35 -35z"/>
</g>
</svg>
