<?xml version="1.0" standalone="no"?>
<!DOCTYPE svg PUBLIC "-//W3C//DTD SVG 20010904//EN"
 "http://www.w3.org/TR/2001/REC-SVG-20010904/DTD/svg10.dtd">
<svg version="1.0" xmlns="http://www.w3.org/2000/svg"
 width="908.000000pt" height="448.000000pt" viewBox="0 0 908.000000 448.000000"
 preserveAspectRatio="xMidYMid meet">

<g transform="translate(0.000000,448.000000) scale(0.100000,-0.100000)"
fill="#000000" stroke="none">
<path d="M160 4101 c0 -5 19 -11 41 -15 68 -11 140 -51 199 -111 l55 -56 0
-647 c-1 -504 -3 -654 -13 -678 -15 -35 -57 -70 -96 -80 -14 -3 -28 -10 -31
-14 -6 -9 224 -23 275 -17 19 3 50 5 68 6 38 1 35 21 -3 21 -13 0 -40 14 -59
31 -56 48 -58 73 -57 680 0 297 3 544 6 549 11 18 22 10 71 -52 26 -35 51 -65
55 -68 6 -5 177 -213 349 -425 52 -65 143 -176 203 -248 l107 -130 0 -113 c0
-104 2 -113 20 -119 11 -3 24 -4 29 0 5 3 13 0 18 -7 4 -7 10 -476 13 -1043
l5 -1030 230 -3 c127 -1 240 0 252 3 l23 5 2 503 3 502 602 3 603 2 0 299 0
299 -24 6 c-12 3 -280 5 -594 5 -314 0 -576 2 -581 6 -13 8 -15 413 -2 433 6
11 125 13 618 12 335 0 617 2 626 6 15 5 17 30 17 214 0 177 -2 209 -15 214
-9 3 -347 6 -752 6 -573 0 -739 3 -745 13 -12 20 -10 810 3 882 17 99 71 145
170 145 22 0 39 5 39 10 0 6 -92 10 -255 10 -140 0 -255 -4 -255 -9 0 -4 24
-11 54 -14 69 -7 111 -29 133 -70 16 -29 18 -74 21 -491 2 -343 0 -462 -9
-472 -8 -10 -25 -13 -53 -10 -23 3 -55 5 -72 5 -32 1 -28 -3 -186 194 -32 40
-64 79 -71 87 -20 23 -151 184 -159 195 -4 6 -27 33 -50 61 -24 28 -130 157
-236 287 l-193 237 -199 0 c-110 0 -200 -4 -200 -9z"/>
<path d="M4981 3652 c-47 -23 -69 -56 -83 -123 -14 -68 1 -152 34 -195 59 -74
190 -70 238 8 29 48 26 68 -10 68 -23 0 -30 -5 -30 -19 0 -26 -46 -61 -79 -61
-59 0 -101 61 -101 145 0 82 42 145 97 145 36 0 73 -22 79 -47 5 -18 13 -23
36 -23 28 0 30 2 23 28 -19 77 -124 116 -204 74z"/>
<path d="M6923 3651 c-59 -28 -87 -83 -87 -176 0 -96 28 -149 91 -177 52 -23
116 -20 159 8 93 61 92 277 -1 338 -41 27 -113 30 -162 7z m126 -47 c69 -49
68 -211 -2 -257 -37 -24 -79 -21 -111 8 -33 31 -46 64 -46 120 0 56 13 89 46
120 31 29 79 33 113 9z"/>
<path d="M2080 3475 l0 -185 25 0 24 0 3 130 3 130 78 -130 c72 -120 80 -130
108 -130 l29 0 0 185 0 185 -30 0 -29 0 -3 -127 -3 -128 -75 127 c-67 114 -78
128 -102 128 l-28 0 0 -185z"/>
<path d="M2509 3633 c-15 -38 -119 -336 -119 -340 0 -2 13 -3 28 -3 26 0 30 5
46 55 l17 56 66 -3 66 -3 17 -50 c15 -45 20 -50 50 -53 24 -3 31 0 28 10 -3 7
-34 91 -69 185 -62 167 -65 173 -92 173 -21 0 -30 -7 -38 -27z m77 -159 c6
-23 4 -24 -41 -24 -34 0 -46 4 -43 13 3 6 13 37 23 67 l18 55 19 -44 c10 -24
21 -54 24 -67z"/>
<path d="M2740 3520 c0 -168 10 -203 67 -226 52 -22 129 -13 162 20 30 30 40
86 40 234 l1 112 -30 0 -30 0 0 -139 c0 -125 -2 -141 -21 -165 -25 -32 -75
-35 -110 -7 -23 18 -24 26 -27 165 l-3 146 -25 0 -24 0 0 -140z"/>
<path d="M3090 3475 l0 -185 25 0 25 0 1 128 1 127 41 -128 c39 -121 42 -128
66 -125 22 3 28 14 60 120 20 64 39 120 44 124 4 4 7 -50 7 -119 l0 -127 25 0
25 0 0 185 0 185 -39 0 -39 0 -22 -72 c-12 -40 -29 -98 -38 -128 -8 -30 -19
-59 -22 -63 -4 -4 -24 53 -46 128 l-39 135 -37 0 -38 0 0 -185z"/>
<path d="M3480 3520 c0 -168 10 -203 67 -226 52 -22 129 -13 162 20 30 30 40
86 40 234 l1 112 -30 0 -30 0 0 -139 c0 -125 -2 -141 -21 -165 -25 -32 -75
-35 -110 -7 -23 18 -24 26 -27 165 l-3 146 -25 0 -24 0 0 -140z"/>
<path d="M3820 3476 l0 -186 25 0 c24 0 25 2 25 75 l0 75 50 0 c62 0 82 -18
106 -94 16 -51 20 -56 46 -56 15 0 28 4 28 8 0 21 -43 132 -55 142 -10 8 -7
16 16 40 39 38 41 105 5 147 -23 27 -28 28 -135 31 l-111 4 0 -186z m195 120
c11 -8 18 -26 18 -46 0 -46 -24 -60 -100 -60 l-63 0 0 60 0 60 63 0 c37 0 71
-6 82 -14z"/>
<path d="M4300 3475 l0 -185 25 0 c25 0 25 1 25 85 l0 85 80 0 c79 0 80 0 80
25 0 25 -1 25 -80 25 l-80 0 0 50 0 50 90 0 c89 0 90 0 90 25 l0 25 -115 0
-115 0 0 -185z"/>
<path d="M4669 3633 c-15 -38 -119 -336 -119 -340 0 -2 13 -3 28 -3 26 0 30 5
46 55 l17 56 66 -3 66 -3 17 -50 c15 -45 20 -50 50 -53 24 -3 31 0 28 10 -3 7
-34 91 -69 185 -62 167 -65 173 -92 173 -21 0 -30 -7 -38 -27z m77 -159 c6
-23 4 -24 -41 -24 -34 0 -46 4 -43 13 3 6 13 37 23 67 l18 55 19 -44 c10 -24
21 -54 24 -67z"/>
<path d="M5260 3475 l0 -185 30 0 30 0 0 185 0 185 -30 0 -30 0 0 -185z"/>
<path d="M5400 3475 l0 -185 105 0 105 0 0 25 c0 25 -1 25 -80 25 l-80 0 0
160 0 160 -25 0 -25 0 0 -185z"/>
<path d="M5660 3475 l0 -185 30 0 30 0 0 185 0 185 -30 0 -30 0 0 -185z"/>
<path d="M5770 3635 c0 -24 3 -25 55 -25 l55 0 0 -160 0 -160 25 0 25 0 0 160
0 160 55 0 c52 0 55 1 55 25 l0 25 -135 0 -135 0 0 -25z"/>
<path d="M6179 3633 c-15 -38 -119 -336 -119 -340 0 -2 13 -3 28 -3 26 0 30 5
46 55 l17 56 66 -3 66 -3 17 -50 c15 -45 20 -50 50 -53 24 -3 31 0 28 10 -3 7
-34 91 -69 185 -62 167 -65 173 -92 173 -21 0 -30 -7 -38 -27z m77 -159 c6
-23 4 -24 -41 -24 -34 0 -46 4 -43 13 3 6 13 37 23 67 l18 55 19 -44 c10 -24
21 -54 24 -67z"/>
<path d="M6380 3635 c0 -24 3 -25 55 -25 l55 0 0 -160 0 -160 25 0 25 0 0 160
0 160 55 0 c52 0 55 1 55 25 l0 25 -135 0 -135 0 0 -25z"/>
<path d="M6710 3475 l0 -185 30 0 30 0 0 185 0 185 -30 0 -30 0 0 -185z"/>
<path d="M7210 3475 l0 -185 25 0 24 0 3 130 3 130 78 -130 c72 -120 80 -130
108 -130 l29 0 0 185 0 185 -30 0 -29 0 -3 -127 -3 -128 -75 127 c-67 114 -78
128 -102 128 l-28 0 0 -185z"/>
<path d="M3859 2437 c-177 -94 -119 -361 81 -375 136 -10 237 107 208 241 -27
126 -174 194 -289 134z"/>
<path d="M3140 920 l0 -300 2970 0 2970 0 0 300 0 300 -2970 0 -2970 0 0 -300z
m268 88 c-3 -7 -25 -14 -51 -16 -45 -3 -47 -5 -47 -33 0 -27 2 -29 40 -29 29
0 40 -4 40 -15 0 -11 -11 -15 -39 -15 -40 0 -40 0 -43 -42 -2 -30 -8 -43 -18
-43 -12 0 -16 19 -18 103 l-3 102 71 0 c53 0 71 -3 68 -12z m146 -86 c41 -113
41 -112 20 -112 -9 0 -21 14 -27 30 -10 25 -17 30 -45 30 -28 0 -35 -5 -44
-31 -6 -17 -16 -29 -25 -27 -19 4 -19 5 17 113 43 128 56 128 104 -3z m196 71
c15 -19 18 -29 9 -37 -8 -8 -15 -5 -26 12 -20 28 -68 30 -83 3 -17 -34 -12
-96 10 -116 17 -15 24 -16 45 -7 14 6 25 18 25 27 0 8 9 15 19 15 18 0 19 -4
10 -29 -10 -29 -44 -51 -79 -51 -50 0 -92 80 -76 144 17 67 105 90 146 39z
m80 -78 c0 -87 -3 -105 -15 -105 -12 0 -15 18 -15 105 0 87 3 105 15 105 12 0
15 -18 15 -105z m70 15 l0 -90 45 0 c33 0 45 -4 45 -15 0 -12 -13 -15 -60 -15
l-60 0 0 105 c0 87 3 105 15 105 12 0 15 -17 15 -90z m150 -15 c0 -87 -3 -105
-15 -105 -12 0 -15 18 -15 105 0 87 3 105 15 105 12 0 15 -18 15 -105z m180
90 c0 -10 -10 -15 -30 -15 l-30 0 0 -90 c0 -73 -3 -90 -15 -90 -12 0 -15 17
-15 90 l0 90 -30 0 c-20 0 -30 5 -30 15 0 12 15 15 75 15 60 0 75 -3 75 -15z
m144 -83 c41 -113 41 -112 20 -112 -9 0 -21 14 -27 30 -10 25 -17 30 -45 30
-28 0 -35 -5 -44 -31 -6 -17 -16 -29 -25 -27 -19 4 -19 5 17 113 43 128 56
128 104 -3z m186 83 c0 -10 -10 -15 -30 -15 l-30 0 0 -90 c0 -73 -3 -90 -15
-90 -12 0 -15 17 -15 90 l0 90 -30 0 c-20 0 -30 5 -30 15 0 12 15 15 75 15 60
0 75 -3 75 -15z m60 -90 c0 -87 -3 -105 -15 -105 -12 0 -15 18 -15 105 0 87 3
105 15 105 12 0 15 -18 15 -105z m171 92 c43 -33 53 -117 19 -160 -39 -50
-116 -43 -145 12 -38 74 2 161 73 161 21 0 44 -6 53 -13z m146 -53 l38 -66 3
66 c3 58 5 66 23 66 19 0 20 -6 17 -102 -4 -131 -18 -139 -74 -43 l-39 67 -5
-64 c-4 -47 -9 -63 -20 -63 -12 0 -16 19 -18 103 -3 96 -2 102 17 102 15 0 31
-19 58 -66z m323 51 c0 -11 -12 -15 -50 -15 -47 0 -50 -2 -50 -25 0 -23 3 -25
51 -25 66 0 62 -24 -4 -28 -46 -3 -47 -4 -47 -38 l0 -34 56 0 c40 0 55 -3 52
-12 -3 -9 -27 -13 -74 -13 l-69 0 -3 103 -3 102 71 0 c56 0 70 -3 70 -15z
m170 0 c0 -10 -10 -15 -30 -15 l-30 0 0 -90 c0 -73 -3 -90 -15 -90 -12 0 -15
17 -15 90 l0 90 -30 0 c-20 0 -30 5 -30 15 0 12 15 15 75 15 60 0 75 -3 75
-15z m138 -87 c-3 -89 -5 -103 -20 -106 -16 -3 -18 7 -18 102 0 100 1 106 20
106 20 0 21 -5 18 -102z m109 36 l38 -66 3 66 c3 58 5 66 23 66 19 0 20 -6 17
-102 -4 -131 -18 -139 -74 -43 l-39 67 -5 -64 c-4 -47 -9 -63 -20 -63 -12 0
-16 19 -18 103 -3 96 -2 102 17 102 15 0 31 -19 58 -66z m253 51 c0 -10 -10
-15 -30 -15 l-30 0 0 -90 c0 -73 -3 -90 -15 -90 -12 0 -15 17 -15 90 l0 90
-30 0 c-20 0 -30 5 -30 15 0 12 15 15 75 15 60 0 75 -3 75 -15z m158 3 c-3 -8
-26 -14 -56 -16 -48 -3 -52 -5 -52 -28 0 -22 4 -24 50 -24 38 0 50 -4 50 -15
0 -11 -12 -15 -50 -15 l-50 0 0 -35 0 -35 55 0 c42 0 55 -3 55 -15 0 -12 -14
-15 -70 -15 l-70 0 0 105 0 105 71 0 c52 0 70 -3 67 -12z m179 -14 c16 -24 16
-29 1 -54 -14 -25 -14 -32 -1 -74 9 -26 13 -49 10 -53 -14 -13 -34 7 -46 46
-10 36 -16 41 -41 41 -27 0 -29 -3 -32 -42 -2 -30 -8 -43 -18 -43 -12 0 -16
19 -18 103 l-3 102 65 0 c60 0 67 -2 83 -26z m114 -46 l22 -73 18 60 c10 33
19 66 19 73 0 6 11 12 25 12 l25 0 0 -105 c0 -87 -3 -105 -15 -105 -12 0 -15
14 -16 68 l0 67 -21 -68 c-26 -83 -43 -85 -68 -7 l-17 55 -4 -55 c-3 -41 -8
-55 -19 -55 -12 0 -16 19 -18 103 l-3 102 25 0 c22 0 28 -8 47 -72z m287 60
c-3 -8 -26 -14 -56 -16 -48 -3 -52 -5 -52 -28 0 -22 4 -24 50 -24 38 0 50 -4
50 -15 0 -11 -12 -15 -50 -15 l-50 0 0 -35 0 -35 55 0 c42 0 55 -3 55 -15 0
-12 -14 -15 -70 -15 l-70 0 0 105 0 105 71 0 c52 0 70 -3 67 -12z m159 -10
c46 -51 36 -145 -17 -173 -16 -8 -47 -15 -70 -15 l-40 0 0 105 0 105 53 0 c43
0 58 -5 74 -22z m101 -80 c-3 -89 -5 -103 -20 -106 -16 -3 -18 7 -18 102 0
100 1 106 20 106 20 0 21 -5 18 -102z m156 4 c41 -113 41 -112 20 -112 -9 0
-21 14 -27 30 -10 25 -17 30 -45 30 -28 0 -35 -5 -44 -31 -6 -17 -16 -29 -25
-27 -19 4 -19 5 17 113 43 128 56 128 104 -3z m194 86 c-3 -7 -16 -14 -31 -16
-26 -3 -26 -5 -29 -90 -2 -69 -6 -87 -18 -87 -12 0 -16 18 -18 87 -3 85 -3 87
-29 90 -15 2 -28 9 -31 16 -3 9 17 12 78 12 61 0 81 -3 78 -12z m60 -90 c-3
-89 -5 -103 -20 -106 -16 -3 -18 7 -18 102 0 100 1 106 20 106 20 0 21 -5 18
-102z m175 82 c52 -41 41 -152 -19 -179 -39 -17 -61 -13 -93 17 -29 26 -34 45
-32 105 2 66 89 100 144 57z m134 -46 l38 -66 3 66 c3 58 5 66 23 66 19 0 20
-6 17 -102 -4 -131 -18 -139 -74 -43 l-39 67 -5 -64 c-4 -47 -9 -63 -20 -63
-12 0 -16 19 -18 103 -3 96 -2 102 17 102 15 0 31 -19 58 -66z m318 41 c35
-34 35 -112 1 -151 -20 -24 -31 -28 -77 -29 l-54 0 -3 103 -3 102 56 0 c46 0
60 -4 80 -25z m195 10 c0 -11 -12 -15 -50 -15 -47 0 -50 -2 -50 -25 0 -23 3
-25 51 -25 66 0 62 -24 -4 -28 -46 -3 -47 -4 -47 -38 l0 -34 56 0 c40 0 55 -3
52 -12 -3 -9 -27 -13 -74 -13 l-69 0 -3 103 -3 102 71 0 c56 0 70 -3 70 -15z
m152 -2 c21 -19 24 -53 4 -53 -8 0 -18 9 -21 20 -9 28 -65 29 -65 1 0 -14 11
-23 38 -31 74 -24 91 -62 47 -105 -39 -40 -106 -26 -124 26 -9 25 -8 29 10 29
10 0 19 -7 19 -15 0 -20 36 -38 61 -30 34 11 20 48 -22 60 -67 19 -88 57 -52
97 20 23 80 24 105 1z m260 0 c18 -16 24 -59 10 -79 -11 -17 -48 -34 -76 -34
-21 0 -25 -5 -28 -37 -2 -26 -8 -38 -18 -38 -12 0 -16 19 -18 103 l-3 102 57
0 c39 0 63 -5 76 -17z m109 -55 l22 -73 18 60 c10 33 19 66 19 73 0 6 11 12
25 12 l25 0 0 -105 c0 -87 -3 -105 -15 -105 -12 0 -15 14 -16 68 l0 67 -21
-68 c-26 -83 -43 -85 -68 -7 l-17 55 -4 -55 c-3 -41 -8 -55 -19 -55 -12 0 -16
19 -18 103 l-3 102 25 0 c22 0 28 -8 47 -72z m287 60 c-3 -8 -26 -14 -56 -16
-48 -3 -52 -5 -52 -28 0 -22 4 -24 50 -24 38 0 50 -4 50 -15 0 -11 -12 -15
-50 -15 l-50 0 0 -35 0 -35 55 0 c42 0 55 -3 55 -15 0 -12 -14 -15 -70 -15
l-70 0 0 105 0 105 71 0 c52 0 70 -3 67 -12z"/>
<path d="M3486 938 c-9 -35 -8 -38 14 -38 11 0 20 3 20 8 0 19 -13 52 -20 52
-4 0 -10 -10 -14 -22z"/>
<path d="M4306 938 c-9 -35 -8 -38 14 -38 11 0 20 3 20 8 0 19 -13 52 -20 52
-4 0 -10 -10 -14 -22z"/>
<path d="M4700 970 c-6 -12 -10 -40 -8 -63 2 -33 8 -44 30 -57 26 -14 29 -13
50 8 26 26 31 89 9 116 -19 23 -68 21 -81 -4z"/>
<path d="M6160 960 c0 -30 2 -31 38 -28 32 3 37 6 37 28 0 22 -5 25 -37 28
-36 3 -38 2 -38 -28z"/>
<path d="M6730 915 c0 -71 1 -75 23 -75 41 0 67 27 67 71 0 59 -14 79 -55 79
l-35 0 0 -75z"/>
<path d="M7016 938 c-9 -35 -8 -38 14 -38 11 0 20 3 20 8 0 19 -13 52 -20 52
-4 0 -10 -10 -14 -22z"/>
<path d="M7416 968 c-33 -46 -7 -128 39 -128 28 0 55 38 55 78 0 65 -61 97
-94 50z"/>
<path d="M7870 915 c0 -72 1 -75 23 -75 35 0 57 21 64 62 8 51 -16 88 -57 88
l-30 0 0 -75z"/>
<path d="M8480 955 c0 -28 4 -35 19 -35 37 0 51 12 51 41 0 26 -3 29 -35 29
-33 0 -35 -2 -35 -35z"/>
</g>
</svg>
