<?xml version="1.0" standalone="no"?>
<!DOCTYPE svg PUBLIC "-//W3C//DTD SVG 20010904//EN"
 "http://www.w3.org/TR/2001/REC-SVG-20010904/DTD/svg10.dtd">
<svg version="1.0" xmlns="http://www.w3.org/2000/svg"
 width="649.000000pt" height="377.000000pt" viewBox="0 0 649.000000 377.000000"
 preserveAspectRatio="xMidYMid meet">

<g transform="translate(0.000000,377.000000) scale(0.100000,-0.100000)"
fill="#000000" stroke="none">
<path d="M0 1885 l0 -1885 3245 0 3245 0 0 1885 0 1885 -3245 0 -3245 0 0
-1885z m1915 -1095 c0 -56 -3 -70 -15 -70 -12 0 -14 12 -12 61 3 44 0 64 -10
70 -9 6 -6 9 12 9 24 0 25 -2 25 -70z m100 20 l40 -51 3 42 c2 27 -1 45 -10
50 -8 6 -3 8 17 8 17 0 24 -3 18 -6 -9 -3 -13 -28 -13 -71 l-1 -67 -44 50
c-25 28 -50 49 -56 47 -6 -1 -8 2 -5 7 4 5 -1 17 -10 25 -14 15 -14 16 3 16
10 0 36 -23 58 -50z m185 41 c0 -5 -9 -7 -20 -4 -18 5 -20 0 -20 -55 0 -39 4
-62 13 -65 6 -3 -4 -5 -23 -5 -19 0 -29 2 -22 5 8 3 12 26 12 65 0 55 -2 60
-20 55 -11 -3 -20 -1 -20 4 0 5 23 9 50 9 28 0 50 -4 50 -9z m130 1 c0 -4 -16
-6 -35 -4 -32 4 -35 2 -35 -23 0 -25 3 -27 30 -23 25 4 30 1 29 -16 0 -12 -3
-15 -6 -8 -2 6 -16 12 -29 12 -20 0 -24 -5 -24 -30 0 -26 4 -30 28 -30 15 0
34 6 41 13 11 10 13 9 9 -3 -3 -11 -21 -16 -64 -17 -32 -1 -53 0 -46 3 7 4 12
27 12 64 0 37 -5 60 -12 63 -7 3 13 6 45 6 31 1 57 -3 57 -7z m114 2 c21 -8
20 -41 -1 -52 -15 -9 -14 -12 6 -41 12 -17 31 -31 42 -31 17 0 19 7 19 59 0
38 -4 61 -12 64 -7 3 -3 6 9 6 18 1 29 -11 49 -51 l27 -53 25 53 c19 38 32 52
47 51 11 0 14 -3 8 -6 -8 -3 -13 -26 -13 -63 0 -37 5 -60 13 -63 6 -3 -4 -5
-23 -5 -19 0 -29 2 -22 5 7 3 12 23 11 51 l-1 47 -25 -55 -26 -55 -26 55 -26
55 -3 -44 c-2 -28 1 -47 10 -52 8 -5 -5 -9 -35 -9 -44 0 -49 3 -68 35 -12 19
-25 35 -30 35 -14 0 -11 -58 4 -63 6 -3 -4 -5 -23 -5 -19 0 -29 2 -22 5 7 3
12 26 12 63 0 37 -5 60 -12 63 -7 3 6 6 29 6 23 1 48 -2 57 -5z m346 -2 c0 -4
-16 -6 -35 -4 -32 4 -35 2 -35 -22 0 -21 5 -26 24 -26 13 0 27 6 29 13 3 6 5
-1 5 -18 0 -16 -2 -24 -5 -17 -2 6 -16 12 -29 12 -20 0 -24 -5 -24 -30 0 -26
4 -30 28 -30 15 0 34 6 41 13 11 10 13 9 9 -3 -3 -11 -21 -16 -64 -17 -32 -1
-53 0 -46 3 7 4 12 27 12 64 0 37 -5 60 -12 63 -7 3 13 6 45 6 31 1 57 -3 57
-7z m138 -8 c16 -11 22 -25 22 -54 0 -51 -27 -70 -95 -69 -27 0 -44 3 -37 6 7
3 12 26 12 63 0 37 -5 60 -12 63 -7 3 10 6 37 6 31 1 59 -5 73 -15z m77 -54
c0 -56 -3 -70 -15 -70 -12 0 -15 14 -15 70 0 56 3 70 15 70 12 0 15 -14 15
-70z m125 6 c12 -36 27 -67 33 -70 7 -2 0 -5 -15 -5 -18 -1 -26 3 -23 12 8 20
-11 39 -36 35 -18 -2 -24 -9 -23 -25 0 -16 -5 -23 -17 -23 -18 0 -17 1 0 33
10 17 24 49 31 70 6 20 15 37 20 37 5 0 18 -29 30 -64z m150 55 c0 -5 -9 -7
-20 -4 -18 5 -20 0 -20 -55 0 -39 4 -62 13 -65 6 -3 -4 -5 -23 -5 -19 0 -29 2
-22 5 8 3 12 26 12 65 0 55 -2 60 -20 55 -11 -3 -20 -1 -20 4 0 5 23 9 50 9
28 0 50 -4 50 -9z m65 -61 c0 -56 -3 -70 -15 -70 -12 0 -14 12 -12 61 3 44 0
64 -10 70 -9 6 -6 9 12 9 24 0 25 -2 25 -70z m143 54 c29 -20 30 -76 2 -104
-43 -43 -110 -10 -110 54 0 38 28 66 65 66 11 0 31 -7 43 -16z m107 -34 l40
-51 3 42 c2 27 -1 45 -10 50 -9 6 -3 9 17 9 18 0 25 -3 18 -8 -7 -4 -13 -36
-15 -72 l-3 -65 -40 52 c-22 29 -46 52 -53 53 -7 0 -11 4 -7 9 3 6 -3 14 -12
20 -17 10 -16 10 2 11 13 0 35 -19 60 -50z m235 42 c0 -4 -16 -6 -35 -4 -32 4
-35 2 -35 -22 0 -21 5 -26 24 -26 13 0 27 6 29 13 3 6 5 -1 5 -18 0 -16 -2
-24 -5 -17 -2 6 -16 12 -29 12 -20 0 -24 -5 -24 -30 0 -26 4 -30 28 -30 15 0
34 6 41 13 11 10 13 9 9 -3 -3 -11 -21 -16 -64 -17 -32 -1 -53 0 -46 3 7 4 12
27 12 64 0 37 -5 60 -12 63 -7 3 13 6 45 6 31 1 57 -3 57 -7z m130 -1 c0 -5
-9 -7 -20 -4 -18 5 -20 0 -20 -55 0 -39 4 -62 13 -65 6 -3 -4 -5 -23 -5 -19 0
-29 2 -22 5 8 3 12 26 12 65 0 55 -2 60 -20 55 -11 -3 -20 -1 -20 4 0 5 23 9
50 9 28 0 50 -4 50 -9z m179 -8 c0 -11 -3 -13 -6 -5 -2 6 -18 12 -34 12 -24 0
-29 -4 -29 -25 0 -18 5 -25 19 -25 11 0 22 6 24 13 3 6 5 -1 5 -18 0 -16 -2
-24 -5 -17 -2 6 -13 12 -24 12 -14 0 -19 -7 -19 -29 0 -16 6 -32 13 -34 6 -3
-4 -5 -23 -5 -19 0 -29 2 -22 5 7 3 12 26 12 63 0 37 -5 60 -12 63 -7 3 13 6
45 6 48 1 57 -2 56 -16z m111 -47 c12 -36 27 -67 33 -70 7 -2 0 -5 -15 -5 -18
-1 -26 3 -23 12 8 20 -11 39 -36 35 -18 -2 -24 -9 -23 -25 0 -16 -5 -23 -18
-23 -17 0 -17 2 -4 23 7 12 21 43 31 70 10 26 21 47 26 47 4 0 17 -29 29 -64z
m180 34 l0 -24 -16 22 c-18 26 -41 28 -66 5 -42 -38 -6 -112 49 -99 21 5 24 4
13 -4 -42 -28 -100 3 -100 56 0 49 30 75 80 72 35 -3 40 -6 40 -28z m55 -40
c0 -68 -1 -70 -25 -70 -18 0 -21 3 -12 9 10 6 13 26 10 70 -2 49 0 61 12 61
12 0 15 -14 15 -70z m78 63 c-9 -3 -13 -26 -13 -64 0 -55 2 -59 23 -59 13 0
29 6 36 13 11 10 13 9 9 -3 -3 -11 -21 -16 -59 -17 -30 -1 -48 0 -41 3 7 4 12
27 12 64 0 37 -5 60 -12 63 -7 3 3 5 22 5 19 0 29 -2 23 -5z m119 -2 c-10 -6
-13 -26 -10 -70 2 -49 0 -61 -12 -61 -12 0 -15 14 -15 70 0 68 1 70 25 70 18
0 21 -3 12 -9z m128 0 c0 -5 -9 -7 -20 -4 -18 5 -20 0 -20 -55 0 -39 4 -62 13
-65 6 -3 -4 -5 -23 -5 -19 0 -29 2 -22 5 8 3 12 26 12 65 0 55 -2 60 -20 55
-11 -3 -20 -1 -20 4 0 5 23 9 50 9 28 0 50 -4 50 -9z m120 -55 c12 -36 27 -67
33 -70 7 -2 0 -5 -15 -5 -18 -1 -26 3 -23 12 8 20 -11 39 -36 35 -18 -2 -24
-9 -23 -25 0 -15 -5 -23 -16 -23 -14 0 -12 9 11 58 16 31 29 63 29 70 0 32 20
6 40 -52z m160 55 c0 -5 -9 -7 -20 -4 -18 5 -20 0 -20 -55 0 -39 4 -62 13 -65
6 -3 -4 -5 -23 -5 -19 0 -29 2 -22 5 8 3 12 26 12 65 0 55 -2 60 -20 55 -11
-3 -20 -1 -20 4 0 5 23 9 50 9 28 0 50 -4 50 -9z m65 -61 c0 -68 -1 -70 -25
-70 -18 0 -21 3 -12 9 10 6 13 26 10 70 -2 49 0 61 12 61 12 0 15 -14 15 -70z
m143 54 c29 -20 30 -76 2 -104 -43 -43 -110 -10 -110 54 0 38 28 66 65 66 11
0 31 -7 43 -16z m107 -34 l40 -51 3 42 c2 27 -1 45 -10 50 -9 6 -3 9 17 9 18
0 25 -3 18 -8 -7 -4 -13 -36 -15 -72 l-3 -65 -40 52 c-22 29 -46 50 -53 48 -7
-3 -11 -1 -7 4 3 5 -2 17 -11 25 -14 15 -14 16 3 16 10 0 36 -23 58 -50z m243
34 c16 -11 22 -25 22 -54 0 -51 -27 -70 -95 -69 -27 0 -44 3 -37 6 7 3 12 26
12 63 0 37 -5 60 -12 63 -7 3 10 6 37 6 31 1 59 -5 73 -15z m142 8 c0 -4 -16
-6 -35 -4 -32 4 -35 2 -35 -22 0 -21 5 -26 24 -26 13 0 27 6 29 13 3 6 5 -1 5
-18 0 -16 -2 -24 -5 -17 -2 6 -16 12 -29 12 -20 0 -24 -5 -24 -30 0 -26 4 -30
28 -30 15 0 34 6 41 13 11 10 13 9 9 -3 -3 -11 -21 -16 -64 -17 -32 -1 -53 0
-46 3 7 4 12 27 12 64 0 37 -5 60 -12 63 -7 3 13 6 45 6 31 1 57 -3 57 -7z
m109 -22 l0 -25 -10 23 c-5 14 -16 22 -26 20 -29 -5 -26 -27 6 -45 58 -33 48
-85 -15 -80 -28 2 -34 6 -34 26 l0 23 18 -23 c12 -14 25 -20 35 -16 25 10 21
22 -18 51 -19 15 -35 33 -35 40 0 21 23 36 52 34 23 -2 28 -7 27 -28z m175 8
c15 -25 -3 -52 -38 -56 -20 -3 -26 -9 -26 -27 0 -13 6 -26 13 -28 6 -3 -4 -5
-23 -5 -19 0 -29 2 -22 5 7 3 12 26 12 63 0 37 -5 60 -12 64 -7 3 9 4 36 3 34
-1 52 -7 60 -19z m82 -30 l27 -53 25 53 c19 38 32 52 47 51 11 0 14 -3 8 -6
-8 -3 -13 -26 -13 -63 0 -37 5 -60 13 -63 6 -3 -4 -5 -23 -5 -19 0 -29 2 -22
5 7 3 12 23 11 51 l-1 47 -25 -55 -26 -55 -26 55 -26 55 -3 -44 c-2 -28 1 -47
10 -52 8 -6 3 -8 -17 -8 -16 0 -24 3 -17 6 7 3 12 26 12 63 0 37 -5 60 -12 63
-7 3 -3 6 9 6 18 1 29 -11 49 -51z m234 44 c0 -4 -16 -6 -35 -4 -32 4 -35 2
-35 -22 0 -21 5 -26 24 -26 13 0 27 6 29 13 3 6 5 -1 5 -18 0 -16 -2 -24 -5
-17 -2 6 -16 12 -29 12 -20 0 -24 -5 -24 -30 0 -26 4 -30 28 -30 15 0 34 6 41
13 11 10 13 9 9 -3 -3 -11 -21 -16 -64 -17 -32 -1 -53 0 -46 3 7 4 12 27 12
64 0 37 -5 60 -12 63 -7 3 13 6 45 6 31 1 57 -3 57 -7z m-2830 -117 c10 -13 9
-15 -8 -15 -15 0 -20 5 -16 15 4 8 7 15 9 15 1 0 8 -7 15 -15z m-1575 -5 c3
-5 -3 -10 -15 -10 -12 0 -18 5 -15 10 3 6 10 10 15 10 5 0 12 -4 15 -10z
m3390 0 c3 -5 -3 -10 -15 -10 -12 0 -18 5 -15 10 3 6 10 10 15 10 5 0 12 -4
15 -10z"/>
<path d="M2390 825 c0 -26 14 -31 39 -16 19 12 6 41 -19 41 -15 0 -20 -7 -20
-25z"/>
<path d="M2850 790 c0 -57 1 -60 24 -60 28 0 56 33 56 66 0 26 -30 54 -58 54
-20 0 -22 -5 -22 -60z"/>
<path d="M3090 823 c0 -6 -3 -18 -6 -27 -4 -11 -1 -16 10 -16 9 0 16 6 16 13
0 16 -20 46 -20 30z"/>
<path d="M3415 833 c-12 -12 -15 -26 -11 -51 8 -51 40 -67 70 -36 31 31 11
104 -29 104 -7 0 -21 -8 -30 -17z"/>
<path d="M4210 823 c0 -6 -3 -18 -6 -27 -4 -11 -1 -16 10 -16 9 0 16 6 16 13
0 16 -20 46 -20 30z"/>
<path d="M4886 804 c-9 -22 -8 -24 9 -24 8 0 15 6 15 14 0 22 -17 28 -24 10z"/>
<path d="M5225 833 c-12 -12 -15 -26 -11 -51 8 -51 40 -67 70 -36 31 31 11
104 -29 104 -7 0 -21 -8 -30 -17z"/>
<path d="M5570 790 c0 -57 1 -60 24 -60 28 0 56 33 56 66 0 26 -30 54 -58 54
-20 0 -22 -5 -22 -60z"/>
<path d="M6010 819 c0 -26 3 -30 22 -27 26 3 37 36 16 49 -25 17 -38 9 -38
-22z"/>
</g>
</svg>
